<?xml version="1.0" encoding="UTF-8"?>
<svg id="_레이어_2" data-name="레이어_2" xmlns="http://www.w3.org/2000/svg" viewBox="0 0 1072 322">
  <defs>
    <style>
      .cls-1 {
        fill: #b4b5b5;
      }

      .cls-2 {
        fill: #cbcccc;
      }

      .cls-3 {
        fill: #d0b5af;
      }

      .cls-4 {
        fill: #c2c2c3;
      }

      .cls-5 {
        fill: #c8a8a2;
      }

      .cls-6 {
        fill: #935f5a;
      }

      .cls-7 {
        fill: #c9a9a2;
      }

      .cls-8 {
        fill: #d6bbb5;
      }

      .cls-9 {
        fill: #d7d8d8;
      }

      .cls-10 {
        fill: #b28781;
      }

      .cls-11 {
        fill: #b58c87;
      }

      .cls-12 {
        fill: #c7c8c8;
      }

      .cls-13 {
        fill: #ceafa9;
      }

      .cls-14 {
        fill: #ccafaa;
      }

      .cls-15 {
        fill: #cfb4ae;
      }

      .cls-16 {
        fill: #a2a3a3;
      }

      .cls-17 {
        fill: #cbaca5;
      }

      .cls-18 {
        fill: #c0c1c1;
      }

      .cls-19 {
        fill: #b38982;
      }

      .cls-20 {
        fill: #979798;
      }

      .cls-21 {
        fill: #b58c85;
      }

      .cls-22 {
        fill: #bfc0c0;
      }

      .cls-23 {
        fill: #caada8;
      }

      .cls-24 {
        fill: #b9baba;
      }

      .cls-25 {
        fill: #7b7b7b;
      }

      .cls-26 {
        fill: #d5b9b2;
      }

      .cls-27 {
        fill: #ceaea9;
      }

      .cls-28 {
        fill: #c8a29b;
      }

      .cls-29 {
        fill: #d4bcb7;
      }

      .cls-30 {
        fill: #d1b5af;
      }

      .cls-31 {
        fill: #caaba5;
      }

      .cls-32 {
        fill: #a7a7a8;
      }

      .cls-33 {
        fill: #c7a49e;
      }

      .cls-34 {
        fill: #a4a5a5;
      }

      .cls-35 {
        fill: #dac3be;
      }

      .cls-36 {
        fill: #ccaea8;
      }

      .cls-37 {
        fill: #c4a49e;
      }

      .cls-38 {
        fill: #f0f0f0;
      }

      .cls-39 {
        fill: #d3b9b3;
      }

      .cls-40 {
        fill: #ccb1ab;
      }

      .cls-41 {
        fill: #b78f88;
      }

      .cls-42 {
        fill: #c29e98;
      }

      .cls-43 {
        fill: #c19f98;
      }

      .cls-44 {
        fill: #b3867f;
      }

      .cls-45 {
        fill: #b0b0b1;
      }

      .cls-46 {
        fill: #caada7;
      }

      .cls-47 {
        fill: #d4b9b3;
      }

      .cls-48 {
        fill: #ddc9c4;
      }

      .cls-49 {
        fill: #c19f99;
      }

      .cls-50 {
        fill: #ceb0aa;
      }

      .cls-51 {
        fill: #d7c0bc;
      }

      .cls-52 {
        fill: #fff;
      }

      .cls-53 {
        fill: #cdafaa;
      }

      .cls-54 {
        fill: #cfb2ab;
      }

      .cls-55 {
        fill: #c6a099;
      }

      .cls-56 {
        fill: #d5d5d6;
      }

      .cls-57 {
        fill: #c3c4c5;
      }

      .cls-58 {
        fill: #cacbcb;
      }

      .cls-59 {
        fill: #d6bfbb;
      }

      .cls-60 {
        fill: #cdafa8;
      }

      .cls-61 {
        fill: #d6bbb6;
      }

      .cls-62 {
        fill: #c9a8a2;
      }

      .cls-63 {
        fill: #b7b8b8;
      }

      .cls-64 {
        fill: #c7a7a1;
      }

      .cls-65 {
        fill: #cfb3ad;
      }

      .cls-66 {
        fill: #c5c5c6;
      }

      .cls-67 {
        fill: #9b9c9c;
      }

      .cls-68 {
        fill: #cdada6;
      }

      .cls-69 {
        fill: #dfdfdf;
      }

      .cls-70 {
        fill: #e1cec9;
      }

      .cls-71 {
        fill: #d1b2ac;
      }

      .cls-72 {
        fill: #d3d3d4;
      }

      .cls-73 {
        fill: #676666;
      }

      .cls-74 {
        fill: #d3b7b1;
      }

      .cls-75 {
        fill: #e7d6d2;
      }

      .cls-76 {
        fill: #b6b7b8;
      }

      .cls-77 {
        fill: #d0b0a9;
      }

      .cls-78 {
        fill: #9a9b9b;
      }

      .cls-79 {
        fill: #f4ecea;
      }

      .cls-80 {
        fill: #d5b9b3;
      }

      .cls-81 {
        fill: #d0b4ae;
      }

      .cls-82 {
        fill: #a1a1a2;
      }

      .cls-83 {
        fill: #c4a099;
      }

      .cls-84 {
        fill: #e7e8e8;
      }

      .cls-85 {
        fill: #c9a8a1;
      }

      .cls-86 {
        fill: #d7c1bc;
      }

      .cls-87 {
        fill: #cfcfd0;
      }

      .cls-88 {
        fill: #eee1de;
      }

      .cls-89 {
        fill: #ceb1ab;
      }

      .cls-90 {
        fill: #919191;
      }

      .cls-91 {
        fill: #c2a19a;
      }

      .cls-92 {
        fill: #e6d4cf;
      }

      .cls-93 {
        fill: #a6a6a7;
      }

      .cls-94 {
        fill: #b28984;
      }

      .cls-95 {
        fill: #c5a19a;
      }

      .cls-96 {
        fill: #cfb1ab;
      }

      .cls-97 {
        fill: #caaba4;
      }

      .cls-98 {
        fill: #c1a09a;
      }

      .cls-99 {
        fill: #b0867f;
      }

      .cls-100 {
        fill: #c8a7a1;
      }

      .cls-101 {
        fill: #ccaea9;
      }

      .cls-102 {
        fill: #878788;
      }

      .cls-103 {
        fill: #ccafa9;
      }

      .cls-104 {
        fill: #9c9d9d;
      }

      .cls-105 {
        fill: #cdada7;
      }

      .cls-106 {
        fill: #dac0ba;
      }

      .cls-107 {
        fill: #c1c2c2;
      }

      .cls-108 {
        fill: #d4b8b2;
      }

      .cls-109 {
        fill: #d3b8b3;
      }

      .cls-110 {
        fill: #d3b8b2;
      }

      .cls-111 {
        fill: #babbbc;
      }

      .cls-112 {
        fill: #ba938d;
      }

      .cls-113 {
        fill: #bebebf;
      }

      .cls-114 {
        fill: #d5bcb6;
      }

      .cls-115 {
        fill: #7c7c7d;
      }

      .cls-116 {
        fill: #c4a19b;
      }

      .cls-117 {
        fill: #c4a29c;
      }

      .cls-118 {
        fill: #ccada7;
      }

      .cls-119 {
        fill: #d6bdb8;
      }

      .cls-120 {
        fill: #c3a099;
      }

      .cls-121 {
        fill: #d2b8b2;
      }

      .cls-122 {
        fill: #a9aaaa;
      }

      .cls-123 {
        fill: #ede0de;
      }

      .cls-124 {
        fill: #d1b4ad;
      }

      .cls-125 {
        fill: #b58d86;
      }

      .cls-126 {
        fill: #e7d6d3;
      }

      .cls-127 {
        fill: #cfb1aa;
      }

      .cls-128 {
        fill: #cbaea8;
      }

      .cls-129 {
        fill: #d4bbb5;
      }

      .cls-130 {
        fill: #d0b4af;
      }

      .cls-131 {
        fill: #c6a6a0;
      }

      .cls-132 {
        fill: #be9791;
      }

      .cls-133 {
        fill: #c9aaa3;
      }

      .cls-134 {
        fill: #c9c9ca;
      }

      .cls-135 {
        fill: #caaba6;
      }

      .cls-136 {
        fill: #ba918b;
      }

      .cls-137 {
        fill: #d2b5b0;
      }

      .cls-138 {
        fill: #e1cac6;
      }

      .cls-139 {
        fill: #d9c2bc;
      }

      .cls-140 {
        fill: #cbaba5;
      }

      .cls-141 {
        fill: #c9cacb;
      }

      .cls-142 {
        fill: #b6b6b7;
      }

      .cls-143 {
        fill: #ceb2ac;
      }

      .cls-144 {
        fill: #ccaba5;
      }

      .cls-145 {
        fill: #c6a8a1;
      }

      .cls-146 {
        fill: #d4b6b1;
      }

      .cls-147 {
        fill: #bb9992;
      }

      .cls-148 {
        fill: #b18781;
      }

      .cls-149 {
        fill: #d5b8b2;
      }

      .cls-150 {
        fill: #cdcece;
      }

      .cls-151 {
        fill: #c9aaa5;
      }

      .cls-152 {
        fill: #d0d1d1;
      }

      .cls-153 {
        fill: #c4c4c5;
      }

      .cls-154 {
        fill: #989899;
      }

      .cls-155 {
        fill: #f4ebea;
      }

      .cls-156 {
        fill: #bababb;
      }

      .cls-157 {
        fill: #d1b2ad;
      }

      .cls-158 {
        fill: #c9aaa4;
      }

      .cls-159 {
        fill: #d7bbb5;
      }

      .cls-160 {
        fill: #d5bab4;
      }

      .cls-161 {
        fill: #dcdcdc;
      }

      .cls-162 {
        fill: #c6a39d;
      }

      .cls-163 {
        fill: #d4b7b2;
      }

      .cls-164 {
        fill: #dbc3be;
      }

      .cls-165 {
        fill: #d5bab5;
      }

      .cls-166 {
        fill: #bdbdbe;
      }

      .cls-167 {
        fill: #eee1dd;
      }

      .cls-168 {
        fill: #c49e97;
      }

      .cls-169 {
        fill: #ba948d;
      }

      .cls-170 {
        fill: #d2b6b0;
      }

      .cls-171 {
        fill: #c29d96;
      }

      .cls-172 {
        fill: #925f5a;
      }

      .cls-173 {
        fill: #caa9a2;
      }

      .cls-174 {
        fill: #666565;
      }

      .cls-175 {
        fill: #cdb0aa;
      }

      .cls-176 {
        fill: #c4a29b;
      }

      .cls-177 {
        fill: #ccada6;
      }

      .cls-178 {
        fill: #d4d5d5;
      }

      .cls-179 {
        fill: #d2b2ab;
      }

      .cls-180 {
        fill: #e0ccc8;
      }

      .cls-181 {
        fill: #b68e88;
      }

      .cls-182 {
        fill: #c5c6c7;
      }

      .cls-183 {
        fill: #c5a39c;
      }

      .cls-184 {
        fill: #c39f98;
      }

      .cls-185 {
        fill: #c7a6a0;
      }

      .cls-186 {
        fill: #e6d8d3;
      }

      .cls-187 {
        fill: #c6a19b;
      }

      .cls-188 {
        fill: #9d9d9e;
      }

      .cls-189 {
        fill: #b68e87;
      }

      .cls-190 {
        fill: #b7908a;
      }

      .cls-191 {
        fill: #c4a19c;
      }

      .cls-192 {
        fill: #d4bbb6;
      }

      .cls-193 {
        fill: #c5a59e;
      }

      .cls-194 {
        fill: #d5b9b4;
      }

      .cls-195 {
        fill: #adaeaf;
      }

      .cls-196 {
        fill: #c3a19b;
      }

      .cls-197 {
        fill: #e4d3cf;
      }

      .cls-198 {
        fill: #c5a69f;
      }

      .cls-199 {
        fill: #b3b4b4;
      }

      .cls-200 {
        fill: #aaabab;
      }

      .cls-201 {
        fill: #adadae;
      }

      .cls-202 {
        fill: #e0ccc7;
      }

      .cls-203 {
        fill: #c2a09a;
      }

      .cls-204 {
        fill: #b2b3b3;
      }

      .cls-205 {
        fill: #c39e98;
      }

      .cls-206 {
        fill: #c3a19a;
      }

      .cls-207 {
        fill: #bc9992;
      }

      .cls-208 {
        fill: #caa7a0;
      }

      .cls-209 {
        fill: #ccb2ac;
      }

      .cls-210 {
        fill: #c2c3c4;
      }

      .cls-211 {
        fill: #e1e2e2;
      }

      .cls-212 {
        fill: #d1b3ae;
      }

      .cls-213 {
        fill: #afb0b0;
      }

      .cls-214 {
        fill: #868686;
      }

      .cls-215 {
        fill: #bd9790;
      }

      .cls-216 {
        fill: #c3a39d;
      }

      .cls-217 {
        fill: #8b8b8c;
      }

      .cls-218 {
        fill: #bebfc0;
      }

      .cls-219 {
        fill: #b68d87;
      }

      .cls-220 {
        fill: #cdcdce;
      }

      .cls-221 {
        fill: #e0cdc9;
      }

      .cls-222 {
        fill: #cfafa9;
      }

      .cls-223 {
        fill: #d6d6d7;
      }

      .cls-224 {
        fill: #cbaba4;
      }

      .cls-225 {
        fill: #d6bab4;
      }

      .cls-226 {
        fill: #be9a94;
      }

      .cls-227 {
        fill: #bcbdbd;
      }

      .cls-228 {
        fill: #d0b2ac;
      }

      .cls-229 {
        fill: #dac1bb;
      }

      .cls-230 {
        fill: #c8a59f;
      }

      .cls-231 {
        fill: #c5a29d;
      }

      .cls-232 {
        fill: #c6a49d;
      }

      .cls-233 {
        fill: #cdaea7;
      }

      .cls-234 {
        fill: #bbbcbc;
      }
    </style>
  </defs>
  <g id="_레이어_1-2" data-name="레이어_1">
    <path class="cls-52" d="M0,0v322h1072V0H0Z"/>
    <path class="cls-119" d="M958,69v1h16l-16-1Z"/>
    <path class="cls-79" d="M233,70v1l15,1-15-2Z"/>
    <path class="cls-155" d="M300,70v1h48c-12.41-5.21-34.47-1-48-1ZM476,70v1h50c-13-5.41-36-1-50-1ZM564,70v1h76l-24-1h-52ZM754,70v1h70l-22-1h-48ZM838,161h1v-90h50c-10.03-4.21-27.1-1-38-1-3.15,0-9.74-1.22-12,1.6-3.46,4.41-1,17.93-1,23.4v66Z"/>
    <path class="cls-43" d="M953.67,70.33l.67.33-.67-.33Z"/>
    <path class="cls-6" d="M933,140c-6.66,11.47,3,17.03,14,19.76,15.54,3.86,41,5.83,51.78-8.76,2.83-3.95,4.08-8.27,4.21-13,.01-3.84.52-8.3-.64-12-7.37-23.51-41.74-8.96-56.12-22.39-8.77-8.19,0-18.92,8.77-22.06,15.19-5.43,26.26,3.92,40,7.45,5-12.38-4.53-15.91-16-18.19-14.83-2.81-36.58-2.01-44.56,13.19-1.94,3.69-2.44,8-2.44,12-.02,3.38,0,6.77,1.25,10,8.56,25,45.75,5.67,58.01,25.02,5.55,8.98-4.85,17.05-12.25,19.46-17.21,5.62-31.27-3.19-46-10.48Z"/>
    <path class="cls-13" d="M977,70v1h3l-3-1Z"/>
    <path class="cls-123" d="M82,71v90h1v-62l-1-28Z"/>
    <path class="cls-172" d="M83,71v90h67v-10h-57v-80h-10Z"/>
    <path class="cls-126" d="M93,71v80h57v-1h-56v-54l-1-25Z"/>
    <path class="cls-6" d="M169,71v90h10c0-7.36-2-18,.6-25,3.21-8.6,17.98-18.84,25.4-24l21.67,35,9.54,13,12.79,1-37-58c11.64-5.43,27.6-21.51,35-32-28.59,0-46,33.47-68,49v-49h-10Z"/>
    <path class="cls-41" d="M179,71v36l2,13-2-49Z"/>
    <path class="cls-116" d="M232,71l1,1-1-1Z"/>
    <path class="cls-117" d="M300,71v90h1v-62l-1-28Z"/>
    <path class="cls-6" d="M301,71v90h10v-35c15,0,37.34,4.02,51-3.42,15.98-8.58,16.27-38.07,1-47.58-15.29-9.53-44.62-4-62-4Z"/>
    <path class="cls-94" d="M351,71v1h3l-3-1Z"/>
    <path class="cls-172" d="M408,71l-37,90c3,0,7.72.83,10.36-1,6.64-4.73,4.64-17.64,11.86-21.97,7.61-4.58,27.77-1.4,36.77-1.01,11.31.5,9,16.19,15.7,22.38,2.71,2.6,7.89,1.6,11.3,1.6l-26-63-11.07-25.4-11.93-1.6Z"/>
    <path class="cls-88" d="M475,71v90h1v-62l-1-28Z"/>
    <path class="cls-6" d="M476,71v90h10v-37c7.7,0,25.42-3.28,31.62,1.6,10.36,8.16,12.38,27.54,23.71,34.4,3.35,2,8.9,1,12.67,1l-24-38c21.57-1.9,27.82-35.27,10.99-47.35-7.11-5.11-15.7-4.65-23.99-4.65h-41Z"/>
    <path class="cls-41" d="M564,71v10h1l-1-10Z"/>
    <path class="cls-6" d="M565,71v10h32v80h10v-80h32v-10h-74Z"/>
    <path class="cls-41" d="M639,71v10h1l-1-10Z"/>
    <path class="cls-88" d="M655,71v90h1v-62l-1-28Z"/>
    <path class="cls-172" d="M656,71v90h10v-77c14.99,17.57,27.23,38.14,40.58,57,7.24,10.23,10.84,20,24.42,20v-90h-10v71l-35.29-50-15.03-19.97-14.67-1.03Z"/>
    <path class="cls-202" d="M720,71v71h1v-49l-1-22Z"/>
    <path class="cls-75" d="M753,71v90h1v-62l-1-28Z"/>
    <path class="cls-172" d="M754,71v90h70v-10h-60v-31h52v-9h-52v-30h60v-10h-70Z"/>
    <path class="cls-6" d="M839,71v90h10v-37c7.82,0,25.31-3.26,31.67,1.6,10.55,8.06,12.33,27.4,23.71,34.4,3.29,2.02,8.9,1,12.62,1l-24-38c21.61-1.9,27.89-35.23,10.99-47.35-6.99-4.92-15.99-4.65-23.99-4.65h-41Z"/>
    <path class="cls-132" d="M892,71v1h3l-3-1Z"/>
    <path class="cls-186" d="M357.67,72.33l.67.33-.67-.33Z"/>
    <path class="cls-202" d="M534.67,72.33l.67.33-.67-.33Z"/>
    <path class="cls-48" d="M897.67,72.33l.67.33-.67-.33Z"/>
    <path class="cls-160" d="M947,72l1,1-1-1Z"/>
    <path class="cls-137" d="M407,73l1,1-1-1Z"/>
    <path class="cls-77" d="M537,73l1,1-1-1Z"/>
    <path class="cls-109" d="M672,73l1,1-1-1Z"/>
    <path class="cls-140" d="M900,73l1,1-1-1Z"/>
    <path class="cls-173" d="M945,73l1,1-1-1Z"/>
    <path class="cls-170" d="M902,74l1,1-1-1Z"/>
    <path class="cls-8" d="M943,74l1,1-1-1Z"/>
    <path class="cls-15" d="M421,75l1,1-1-1Z"/>
    <path class="cls-185" d="M674,76l1,1-1-1Z"/>
    <path class="cls-128" d="M939,77l1,1-1-1Z"/>
    <path class="cls-7" d="M938,78l1,1-1-1Z"/>
    <path class="cls-53" d="M937,79l1,1-1-1Z"/>
    <path class="cls-83" d="M237,80l1,1-1-1Z"/>
    <path class="cls-75" d="M958,80v1h12l-12-1Z"/>
    <path class="cls-43" d="M970.67,80.33l.67.33-.67-.33Z"/>
    <path class="cls-46" d="M236,81l1,1-1-1Z"/>
    <path class="cls-167" d="M311,81v34h1v-33h38c-10.27-4.31-27.83-1-39-1Z"/>
    <path class="cls-74" d="M486,81v33h41v-1h-40l-1-32Z"/>
    <path class="cls-126" d="M487,81v1h38c-10.04-4.21-27.09-1-38-1Z"/>
    <path class="cls-55" d="M525,81v1h3l-3-1Z"/>
    <path class="cls-144" d="M546,81l1,1-1-1Z"/>
    <path class="cls-126" d="M564,81v1h32l-32-1Z"/>
    <path class="cls-229" d="M596,81v80h1v-55l-1-25ZM607,81v80h1v-55l-1-25Z"/>
    <path class="cls-126" d="M608,81v1h32l-32-1Z"/>
    <path class="cls-74" d="M764,81v29h1l-1-29Z"/>
    <path class="cls-126" d="M765,81v1h59l-19-1h-40Z"/>
    <path class="cls-183" d="M849,81v33h1l-1-33Z"/>
    <path class="cls-126" d="M850,81v1h39c-10.27-4.31-27.83-1-39-1Z"/>
    <path class="cls-148" d="M889.67,81.33l.67.33-.67-.33Z"/>
    <path class="cls-117" d="M909,81l1,1-1-1Z"/>
    <path class="cls-229" d="M954.67,81.33l.67.33-.67-.33Z"/>
    <path class="cls-80" d="M975,81v1h3l-3-1Z"/>
    <path class="cls-170" d="M220,82l1,1-1-1Z"/>
    <path class="cls-80" d="M235,82l1,1-1-1Z"/>
    <path class="cls-52" d="M312,82v33c11.83,0,32.35,4,43-1.46,10.75-5.45,10.75-24.54,0-30.09-10.65-5.4-31.17-1.46-43-1.46Z"/>
    <path class="cls-114" d="M424,82l1,1-1-1Z"/>
    <path class="cls-52" d="M487,82v31c12.55,0,33.6,4.03,44.99-1.57,9.44-4.64,9.78-21.96,1-27.42-10.45-6.49-33.98-2.01-45.98-2.01ZM850,82v31c12.55,0,33.6,4.03,44.99-1.57,9.53-4.69,9.88-22.11,1-27.43-10.37-6.51-33.99-2-45.99-2Z"/>
    <path class="cls-224" d="M219,83l1,1-1-1Z"/>
    <path class="cls-54" d="M355,83l1,1-1-1Z"/>
    <path class="cls-170" d="M532,83l1,1-1-1Z"/>
    <path class="cls-143" d="M679,83l1,1-1-1Z"/>
    <path class="cls-88" d="M666,84v77h1v-55l-1-22Z"/>
    <path class="cls-97" d="M948,84l1,1-1-1Z"/>
    <path class="cls-110" d="M985,84l1,1-1-1Z"/>
    <path class="cls-183" d="M358,85l1,1-1-1Z"/>
    <path class="cls-50" d="M413.67,85.33l.67.33-.67-.33Z"/>
    <path class="cls-149" d="M987,85l1,1-1-1Z"/>
    <path class="cls-52" d="M413,86l-17,41h35l-16-41h-2Z"/>
    <path class="cls-101" d="M668,86l1,1-1-1Z"/>
    <path class="cls-120" d="M681,86l1,1-1-1Z"/>
    <path class="cls-196" d="M989,86l1,1-1-1Z"/>
    <path class="cls-226" d="M549.33,88.67l.33.67-.33-.67Z"/>
    <path class="cls-190" d="M912.33,88.67l.33.67-.33-.67Z"/>
    <path class="cls-207" d="M932.33,88.67l.33.67-.33-.67Z"/>
    <path class="cls-229" d="M993.67,89.33l.67.33-.67-.33Z"/>
    <path class="cls-81" d="M373.33,90.67l.33.67-.33-.67Z"/>
    <path class="cls-92" d="M538.33,90.67l.33.67-.33-.67Z"/>
    <path class="cls-231" d="M224,92l1,1-1-1Z"/>
    <path class="cls-86" d="M362.33,92.67l.33.67-.33-.67Z"/>
    <path class="cls-124" d="M399,92l1,1-1-1Z"/>
    <path class="cls-106" d="M550,92v9h1l-1-9Z"/>
    <path class="cls-124" d="M913,92v9h1l-1-9Z"/>
    <path class="cls-39" d="M931,92v8h1l-1-8Z"/>
    <path class="cls-103" d="M223,93l1,1-1-1Z"/>
    <path class="cls-183" d="M539,93v7h1l-1-7Z"/>
    <path class="cls-116" d="M673,93l1,1-1-1Z"/>
    <path class="cls-177" d="M686,93l1,1-1-1Z"/>
    <path class="cls-46" d="M902,93v7h1l-1-7Z"/>
    <path class="cls-31" d="M942,93v5h1l-1-5Z"/>
    <path class="cls-33" d="M409,94l1,1-1-1Z"/>
    <path class="cls-212" d="M429,94l1,1-1-1Z"/>
    <path class="cls-157" d="M206,95l1,1-1-1Z"/>
    <path class="cls-131" d="M205,96l1,1-1-1Z"/>
    <path class="cls-179" d="M675,96l1,1-1-1Z"/>
    <path class="cls-194" d="M691,100l1,1-1-1Z"/>
    <path class="cls-29" d="M432,101l1,1-1-1Z"/>
    <path class="cls-51" d="M362,102v3h1l-1-3Z"/>
    <path class="cls-44" d="M373,102v3h1l-1-3Z"/>
    <path class="cls-135" d="M944,102l1,1-1-1Z"/>
    <path class="cls-70" d="M212.33,103.67l.33.67-.33-.67Z"/>
    <path class="cls-131" d="M680,103l1,1-1-1Z"/>
    <path class="cls-64" d="M693,103l1,1-1-1Z"/>
    <path class="cls-110" d="M932.33,103.67l.33.67-.33-.67Z"/>
    <path class="cls-61" d="M945,103l1,1-1-1Z"/>
    <path class="cls-177" d="M394,104l1,1-1-1Z"/>
    <path class="cls-205" d="M549,104v3h1l-1-3Z"/>
    <path class="cls-49" d="M946,104l1,1-1-1Z"/>
    <path class="cls-59" d="M912.33,105.67l.33.67-.33-.67Z"/>
    <path class="cls-85" d="M537,106l1,1-1-1Z"/>
    <path class="cls-121" d="M682,106l1,1-1-1Z"/>
    <path class="cls-228" d="M900,106l1,1-1-1Z"/>
    <path class="cls-225" d="M193,107l1,1-1-1Z"/>
    <path class="cls-175" d="M192,108l1,1-1-1Z"/>
    <path class="cls-62" d="M956.67,108.33l.67.33-.67-.33Z"/>
    <path class="cls-216" d="M191,109l1,1-1-1Z"/>
    <path class="cls-162" d="M215,109l1,1-1-1Z"/>
    <path class="cls-112" d="M962,109v1h3l-3-1Z"/>
    <path class="cls-164" d="M965,109v1h3l-3-1Z"/>
    <path class="cls-228" d="M698,110l1,1-1-1Z"/>
    <path class="cls-99" d="M764,110v1h52l-17-1h-35Z"/>
    <path class="cls-180" d="M816,110v11h1l-1-11Z"/>
    <path class="cls-222" d="M935,110l1,1-1-1Z"/>
    <path class="cls-21" d="M972.67,110.33l.67.33-.67-.33Z"/>
    <path class="cls-81" d="M974.67,110.33l.67.33-.67-.33Z"/>
    <path class="cls-130" d="M391,111l1,1-1-1Z"/>
    <path class="cls-36" d="M547,111l1,1-1-1Z"/>
    <path class="cls-231" d="M895,111l1,1-1-1Z"/>
    <path class="cls-232" d="M910,111l1,1-1-1Z"/>
    <path class="cls-53" d="M980.67,111.33l.67.33-.67-.33Z"/>
    <path class="cls-191" d="M204,112l1,1-1-1Z"/>
    <path class="cls-17" d="M217,112l1,1-1-1Z"/>
    <path class="cls-19" d="M529.67,112.33l.67.33-.67-.33Z"/>
    <path class="cls-125" d="M892.67,112.33l.67.33-.67-.33Z"/>
    <path class="cls-105" d="M355,113l1,1-1-1Z"/>
    <path class="cls-71" d="M437,113l1,1-1-1Z"/>
    <path class="cls-151" d="M687,113l1,1-1-1Z"/>
    <path class="cls-176" d="M700,113l1,1-1-1Z"/>
    <path class="cls-74" d="M850,113v1h38c-10.04-4.21-27.09-1-38-1Z"/>
    <path class="cls-10" d="M888.67,113.33l.67.33-.67-.33Z"/>
    <path class="cls-110" d="M909,113l1,1-1-1Z"/>
    <path class="cls-71" d="M219,115l1,1-1-1Z"/>
    <path class="cls-202" d="M311,115v1h38c-10.04-4.21-27.09-1-38-1Z"/>
    <path class="cls-158" d="M196,118l1,1-1-1Z"/>
    <path class="cls-47" d="M221,118l1,1-1-1Z"/>
    <path class="cls-114" d="M388,118l1,1-1-1Z"/>
    <path class="cls-3" d="M997,118l1,1-1-1Z"/>
    <path class="cls-74" d="M195,119l1,1-1-1Z"/>
    <path class="cls-83" d="M540,119l1,1-1-1Z"/>
    <path class="cls-169" d="M951.67,119.33l.67.33-.67-.33Z"/>
    <path class="cls-157" d="M998,119l1,1-1-1Z"/>
    <path class="cls-8" d="M440,120l1,1-1-1Z"/>
    <path class="cls-60" d="M705,120l1,1-1-1Z"/>
    <path class="cls-41" d="M764,120v1h52l-17-1h-35Z"/>
    <path class="cls-110" d="M955.67,120.33l.67.33-.67-.33Z"/>
    <path class="cls-74" d="M764,121v30h1l-1-30Z"/>
    <path class="cls-192" d="M961,121v1h5l-5-1Z"/>
    <path class="cls-11" d="M966,121v1h3l-3-1Z"/>
    <path class="cls-138" d="M972,122v1h3l-3-1Z"/>
    <path class="cls-29" d="M211,123l1,1-1-1Z"/>
    <path class="cls-5" d="M397,123l1,1-1-1Z"/>
    <path class="cls-98" d="M530.33,123.67l.33.67-.33-.67Z"/>
    <path class="cls-233" d="M694,123l1,1-1-1Z"/>
    <path class="cls-215" d="M893.33,123.67l.33.67-.33-.67Z"/>
    <path class="cls-42" d="M979.67,123.33l.67.33-.67-.33Z"/>
    <path class="cls-177" d="M486,124v37h1c0-10.65,3-27.2-1-37Z"/>
    <path class="cls-183" d="M849,124v37h1c0-10.65,3-27.2-1-37Z"/>
    <path class="cls-181" d="M351,125v1h3l-3-1Z"/>
    <path class="cls-116" d="M518,125l1,1-1-1Z"/>
    <path class="cls-177" d="M881,125l1,1-1-1Z"/>
    <path class="cls-81" d="M213,126l1,1-1-1Z"/>
    <path class="cls-155" d="M311,126v35h1v-34h35c-9.56-4-25.61-1-36-1Z"/>
    <path class="cls-184" d="M431,126l1,1-1-1Z"/>
    <path class="cls-7" d="M532,127l1,1-1-1Z"/>
    <path class="cls-129" d="M710,127l1,1-1-1Z"/>
    <path class="cls-206" d="M883,128l1,1-1-1Z"/>
    <path class="cls-23" d="M215,129l1,1-1-1Z"/>
    <path class="cls-168" d="M228,129l1,1-1-1Z"/>
    <path class="cls-171" d="M1003,129v10h1l-1-10Z"/>
    <path class="cls-7" d="M183,130l1,1-1-1Z"/>
    <path class="cls-212" d="M383,130l1,1-1-1Z"/>
    <path class="cls-50" d="M534,130l1,1-1-1Z"/>
    <path class="cls-91" d="M699,130l1,1-1-1Z"/>
    <path class="cls-5" d="M712,130l1,1-1-1Z"/>
    <path class="cls-230" d="M897,130l1,1-1-1Z"/>
    <path class="cls-30" d="M182,131l1,1-1-1Z"/>
    <path class="cls-198" d="M217,132l1,1-1-1Z"/>
    <path class="cls-33" d="M230,132l1,1-1-1Z"/>
    <path class="cls-65" d="M445,132l1,1-1-1Z"/>
    <path class="cls-197" d="M992,132v6h1l-1-6Z"/>
    <path class="cls-26" d="M523,133l1,1-1-1Z"/>
    <path class="cls-110" d="M536,133l1,1-1-1Z"/>
    <path class="cls-127" d="M701,133l1,1-1-1Z"/>
    <path class="cls-68" d="M899,133l1,1-1-1Z"/>
    <path class="cls-41" d="M179,134v27h1l-1-27Z"/>
    <path class="cls-118" d="M232,135l1,1-1-1Z"/>
    <path class="cls-101" d="M525,136l1,1-1-1Z"/>
    <path class="cls-108" d="M888,136l1,1-1-1Z"/>
    <path class="cls-121" d="M901,136l1,1-1-1Z"/>
    <path class="cls-159" d="M380,137l1,1-1-1Z"/>
    <path class="cls-139" d="M392,137v1h44c-11.46-4.81-31.52-1-44-1Z"/>
    <path class="cls-124" d="M717,137l1,1-1-1ZM234,138l1,1-1-1Z"/>
    <path class="cls-165" d="M448,139l1,1-1-1Z"/>
    <path class="cls-37" d="M527,139l1,1-1-1Z"/>
    <path class="cls-36" d="M890,139l1,1-1-1Z"/>
    <path class="cls-131" d="M706,140l1,1-1-1Z"/>
    <path class="cls-14" d="M934,140l1,1-1-1Z"/>
    <path class="cls-192" d="M236,141l1,1-1-1Z"/>
    <path class="cls-89" d="M991,141l1,1-1-1Z"/>
    <path class="cls-162" d="M892,142l1,1-1-1Z"/>
    <path class="cls-131" d="M438,143l1,1-1-1Z"/>
    <path class="cls-74" d="M708,143l1,1-1-1Z"/>
    <path class="cls-216" d="M938,143l1,1-1-1Z"/>
    <path class="cls-131" d="M990,143l1,1-1-1Z"/>
    <path class="cls-95" d="M543,144l1,1-1-1Z"/>
    <path class="cls-74" d="M226,146l1,1-1-1Z"/>
    <path class="cls-28" d="M387,147l1,1-1-1Z"/>
    <path class="cls-7" d="M545,147l1,1-1-1Z"/>
    <path class="cls-203" d="M986,147l1,1-1-1Z"/>
    <path class="cls-27" d="M928.33,148.67l.33.67-.33-.67Z"/>
    <path class="cls-47" d="M984,148l1,1-1-1Z"/>
    <path class="cls-30" d="M1000,148l1,1-1-1Z"/>
    <path class="cls-222" d="M228,149l1,1-1-1Z"/>
    <path class="cls-65" d="M375,149l1,1-1-1Z"/>
    <path class="cls-186" d="M951.67,149.33l.67.33-.67-.33Z"/>
    <path class="cls-209" d="M534,150l1,1-1-1Z"/>
    <path class="cls-40" d="M547,150l1,1-1-1Z"/>
    <path class="cls-133" d="M713,150l1,1-1-1Z"/>
    <path class="cls-221" d="M765,150v1h59l-19-1h-40Z"/>
    <path class="cls-131" d="M910,150l1,1-1-1Z"/>
    <path class="cls-103" d="M954,150v1h3l-3-1Z"/>
    <path class="cls-184" d="M978.67,150.33l.67.33-.67-.33Z"/>
    <path class="cls-74" d="M150,151v10h1l-1-10Z"/>
    <path class="cls-96" d="M453,151l1,1-1-1Z"/>
    <path class="cls-146" d="M959,151v1h5l-5-1Z"/>
    <path class="cls-126" d="M964,151v1h9l-9-1Z"/>
    <path class="cls-136" d="M973,151v1h3l-3-1Z"/>
    <path class="cls-163" d="M998,151l1,1-1-1Z"/>
    <path class="cls-100" d="M230,152l1,1-1-1Z"/>
    <path class="cls-196" d="M997,152l1,1-1-1Z"/>
    <path class="cls-145" d="M536,153l1,1-1-1Z"/>
    <path class="cls-47" d="M549,153l1,1-1-1Z"/>
    <path class="cls-29" d="M715,153l1,1-1-1Z"/>
    <path class="cls-89" d="M899,153l1,1-1-1Z"/>
    <path class="cls-27" d="M912,153l1,1-1-1Z"/>
    <path class="cls-191" d="M935,154l1,1-1-1Z"/>
    <path class="cls-208" d="M995,154l1,1-1-1Z"/>
    <path class="cls-120" d="M232,155l1,1-1-1Z"/>
    <path class="cls-64" d="M245,155l1,1-1-1Z"/>
    <path class="cls-8" d="M372,156l1,1-1-1Z"/>
    <path class="cls-193" d="M901,156l1,1-1-1Z"/>
    <path class="cls-74" d="M914,156l1,1-1-1Z"/>
    <path class="cls-105" d="M247,158l1,1-1-1Z"/>
    <path class="cls-194" d="M456,158l1,1-1-1Z"/>
    <path class="cls-36" d="M720,160l1,1-1-1Z"/>
    <path class="cls-219" d="M949.67,160.33l.67.33-.67-.33Z"/>
    <path class="cls-35" d="M983.67,160.33l.67.33-.67-.33Z"/>
    <path class="cls-155" d="M83,161v1h67l-21-1h-46ZM754,161v1h70l-22-1h-48Z"/>
    <path class="cls-187" d="M953.67,161.33l.67.33-.67-.33Z"/>
    <path class="cls-147" d="M978.67,161.33l.67.33-.67-.33Z"/>
    <path class="cls-103" d="M958,162v1h4l-4-1Z"/>
    <path class="cls-189" d="M962,162v1h10l-10-1Z"/>
    <path class="cls-160" d="M972,162v1h3l-3-1Z"/>
    <path class="cls-73" d="M441,201v11h-9v4h9v13h5v-28h-5Z"/>
    <path class="cls-223" d="M446,201v28h1l-1-28Z"/>
    <path class="cls-38" d="M457,201v1h43c-11.23-4.71-30.78-1-43-1Z"/>
    <path class="cls-174" d="M549,201v11h-10v4h10v13h5v-28h-5Z"/>
    <path class="cls-16" d="M572,201v1h7l-7-1Z"/>
    <path class="cls-69" d="M602,201v40h1c0-11.43,3.41-29.49-1-40Z"/>
    <path class="cls-115" d="M603,201v1h4v39h1v-40h-5Z"/>
    <path class="cls-174" d="M656,217h7v12h6v-27h-6v9h-7c-4-16.71-25.28-10-24,6,1.38,15,21.78,14.01,24,0Z"/>
    <path class="cls-152" d="M647.67,201.33l.67.33-.67-.33Z"/>
    <path class="cls-67" d="M662,201v10h1v-9h6l-7-1Z"/>
    <path class="cls-84" d="M672,201v28h1l-1-28Z"/>
    <path class="cls-73" d="M673,201v28h6v-28h-6Z"/>
    <path class="cls-32" d="M679,201v28h-6v1h7l-1-29Z"/>
    <path class="cls-220" d="M688,201v1h22l-22-1Z"/>
    <path class="cls-67" d="M717,201v21h1v-20h6l-7-1Z"/>
    <path class="cls-84" d="M727,201v54h1v-36l-1-18Z"/>
    <path class="cls-73" d="M728,201v54h6v-54h-6Z"/>
    <path class="cls-93" d="M734,201v54h1v-36l-1-18Z"/>
    <path class="cls-200" d="M750.67,201.33l.67.33-.67-.33Z"/>
    <path class="cls-174" d="M752,201.48c-11.42,2.23-10,13.52-10,22.52,0,14-2.3,33.49,18,29.77,9.24-1.69,9-11.45,9-18.77,0-12.92,3.85-37.59-17-33.52Z"/>
    <path class="cls-122" d="M758,201v1h3l-3-1Z"/>
    <path class="cls-93" d="M780,201v54h1v-36l-1-18Z"/>
    <path class="cls-174" d="M781,201v54h6v-54h-6Z"/>
    <path class="cls-223" d="M787,201v54h1v-36l-1-18Z"/>
    <path class="cls-220" d="M793,208h1v-6h30c-7.63-3.2-30.66-4.23-31,6Z"/>
    <path class="cls-67" d="M830,201v54h1v-36l-1-18Z"/>
    <path class="cls-174" d="M831,201v54h6v-27h8v-6h-8v-21h-6Z"/>
    <path class="cls-69" d="M837,201v21h1l-1-21Z"/>
    <path class="cls-220" d="M851,201v1h43c-11.23-4.71-30.78-1-43-1ZM903,201v1h7l-7-1Z"/>
    <path class="cls-73" d="M942,201v21h-14v6h14v27h7v-54h-7Z"/>
    <path class="cls-45" d="M976,201v13h1v-12h6v12h1v-13h-8Z"/>
    <path class="cls-223" d="M401,202v25h1l-1-25Z"/>
    <path class="cls-73" d="M402,202v25h27v-25h-5v9h-18v-9h-4Z"/>
    <path class="cls-214" d="M406,202v9h1l-1-9ZM457,202v28h1l-1-28Z"/>
    <path class="cls-174" d="M458,202v28h41v-28h-41Z"/>
    <path class="cls-45" d="M499,202v28h1l-1-28Z"/>
    <path class="cls-93" d="M509,202v25h1l-1-25Z"/>
    <path class="cls-73" d="M510,202v25h26v-25h-4v9h-18v-9h-4Z"/>
    <path class="cls-57" d="M514,202v9h18v-9h-1v8h-16l-1-8Z"/>
    <path class="cls-214" d="M536,202v25h1l-1-25Z"/>
    <path class="cls-73" d="M570,202.74c-17.1,6.63-4.72,33.49,12.99,26.52,16.24-6.26,4.64-33.26-12.99-26.52ZM603,202v39h4v-39h-4Z"/>
    <path class="cls-227" d="M650,202l1,1-1-1Z"/>
    <path class="cls-174" d="M688,202v5h15v15h-15v5h14c-3.29,8-17.46,19.36-14,27,21.68-9.36,22-31.71,22-52h-22Z"/>
    <path class="cls-73" d="M718,202c0,7,2.93,19.58-6,21v5h6v26h6v-52h-6ZM794,202v5h30v-5h-30Z"/>
    <path class="cls-38" d="M850,202v34h1l-1-34Z"/>
    <path class="cls-73" d="M851,202v33h43v-5h-36v-8h35v-6h-35v-9h36v-5h-43Z"/>
    <path class="cls-174" d="M903,202v52h31v-5h-24v-47h-7ZM977,202c0,14.1-5.01,24.79-20,28l1,6c8.42-1.24,17.24-4.96,21-13h2c2.85,6.09,20.51,20,22,7-15-3.53-20-13.7-20-28h-6Z"/>
    <path class="cls-234" d="M584,203l1,1-1-1Z"/>
    <path class="cls-113" d="M746,203l1,1-1-1Z"/>
    <path class="cls-24" d="M764,203l1,1-1-1Z"/>
    <path class="cls-218" d="M744,205l1,1-1-1Z"/>
    <path class="cls-166" d="M766,205l1,1-1-1Z"/>
    <path class="cls-156" d="M462,206v20h1v-19h31l-32-1Z"/>
    <path class="cls-52" d="M573,206.75c-10.12,3.92-4.78,22.98,6.96,18.36,10.04-3.98,4.58-22.81-6.96-18.36Z"/>
    <path class="cls-156" d="M654,206l1,1-1-1Z"/>
    <path class="cls-52" d="M463,207v18h31v-18h-31Z"/>
    <path class="cls-93" d="M494,207v19h1l-1-19Z"/>
    <path class="cls-107" d="M588,207l1,1-1-1Z"/>
    <path class="cls-52" d="M642,208.07c-6,3.18-2.56,17.58,4.68,12.93,4.68-3,2.32-16.59-4.68-12.93Z"/>
    <path class="cls-45" d="M688,207v1h15l-15-1Z"/>
    <path class="cls-52" d="M752,208.03c-5.78,3.41-4.4,29.97-2.57,35.97,1.19,4,6.74,5.3,10.13,3,2.78-1.94,2.42-6,2.43-9,0-7.59,2.32-19.85-.6-26.89-1.43-3.44-6-4.94-9.4-3.08Z"/>
    <path class="cls-93" d="M794,207v1h30l-30-1Z"/>
    <path class="cls-45" d="M858,207v1h36c-9.56-4-25.61-1-36-1Z"/>
    <path class="cls-111" d="M640,208l1,1-1-1Z"/>
    <path class="cls-1" d="M648,209l1,1-1-1Z"/>
    <path class="cls-57" d="M407,210v1h17l-17-1Z"/>
    <path class="cls-217" d="M798,210v1h6l-6-1Z"/>
    <path class="cls-210" d="M804,210v4h1l-1-4Z"/>
    <path class="cls-174" d="M813,210l-1,38h-6l-2-37h-6l2,37h-7v6h32v-6h-7l2-37-7-1Z"/>
    <path class="cls-166" d="M816,210v1h4l-4-1Z"/>
    <path class="cls-201" d="M562.33,211.67l.33.67-.33-.67Z"/>
    <path class="cls-134" d="M649,211v7h1l-1-7Z"/>
    <path class="cls-87" d="M797,211v5h1l-1-5Z"/>
    <path class="cls-32" d="M431,212v5h10v-1h-9l-1-4Z"/>
    <path class="cls-161" d="M567,212v7h1l-1-7Z"/>
    <path class="cls-78" d="M590,212v7h1l-1-7Z"/>
    <path class="cls-69" d="M631,212v5h1l-1-5Z"/>
    <path class="cls-34" d="M638,212v5h1l-1-5Z"/>
    <path class="cls-45" d="M741,212v30h1l-1-30ZM769,212v30h1l-1-30Z"/>
    <path class="cls-22" d="M585,213v6h1l-1-6Z"/>
    <path class="cls-57" d="M748,213v29h1l-1-29ZM762,213v29h1l-1-29Z"/>
    <path class="cls-16" d="M804,214v5h1l-1-5Z"/>
    <path class="cls-214" d="M406,215v8h1l-1-8Z"/>
    <path class="cls-84" d="M407,215v1h17l-17-1Z"/>
    <path class="cls-45" d="M514,215v8h1l-1-8Z"/>
    <path class="cls-84" d="M515,215v1h16l-16-1Z"/>
    <path class="cls-220" d="M531,215v8h1l-1-8Z"/>
    <path class="cls-93" d="M819,215v5h1l-1-5Z"/>
    <path class="cls-38" d="M858,215v1h35l-35-1Z"/>
    <path class="cls-52" d="M407,216v7h17v-7h-17ZM515,216v7h16v-7h-16Z"/>
    <path class="cls-93" d="M539,216v1h10l-10-1Z"/>
    <path class="cls-211" d="M812,216v6h1l-1-6Z"/>
    <path class="cls-104" d="M662,217v12h1l-1-12Z"/>
    <path class="cls-58" d="M562.33,219.67l.33.67-.33-.67Z"/>
    <path class="cls-12" d="M819,220v7h1l-1-7Z"/>
    <path class="cls-113" d="M986,220l1,1-1-1Z"/>
    <path class="cls-214" d="M687,221v6h1v-5h15l-16-1Z"/>
    <path class="cls-154" d="M643,222v1h3l-3-1Z"/>
    <path class="cls-214" d="M711,222v6h1v-5h5l-6-1Z"/>
    <path class="cls-204" d="M812,222v7h1l-1-7Z"/>
    <path class="cls-93" d="M927,222v6h1l-1-6Z"/>
    <path class="cls-182" d="M709,223v3h1l-1-3Z"/>
    <path class="cls-188" d="M798,223v6h1l-1-6Z"/>
    <path class="cls-72" d="M979.67,223.33l.67.33-.67-.33Z"/>
    <path class="cls-24" d="M588,224l1,1-1-1Z"/>
    <path class="cls-218" d="M653,224l1,1-1-1Z"/>
    <path class="cls-220" d="M463,225v1h31l-31-1Z"/>
    <path class="cls-9" d="M572.67,225.33l.67.33-.67-.33Z"/>
    <path class="cls-63" d="M652,225l1,1-1-1Z"/>
    <path class="cls-234" d="M968,225l1,1-1-1Z"/>
    <path class="cls-1" d="M991,225l1,1-1-1Z"/>
    <path class="cls-178" d="M805,226v6h1l-1-6Z"/>
    <path class="cls-156" d="M402,227v1h27l-27-1ZM509,227v1h28l-28-1Z"/>
    <path class="cls-69" d="M687,227v1h14l-14-1Z"/>
    <path class="cls-213" d="M701.33,227.67l.33.67-.33-.67Z"/>
    <path class="cls-141" d="M641,228v1h6l-6-1Z"/>
    <path class="cls-66" d="M708.33,228.67l.33.67-.33-.67Z"/>
    <path class="cls-67" d="M717,228v26h1l-1-26Z"/>
    <path class="cls-69" d="M837,228v27h1v-26h7l-8-1Z"/>
    <path class="cls-84" d="M927,228v1h15l-15-1Z"/>
    <path class="cls-156" d="M441,229v1h5l-5-1ZM549,229v1h5l-5-1Z"/>
    <path class="cls-150" d="M798,229v8h1l-1-8Z"/>
    <path class="cls-69" d="M858,229v1h36c-9.56-4-25.61-1-36-1Z"/>
    <path class="cls-67" d="M959.67,229.33l.67.33-.67-.33Z"/>
    <path class="cls-38" d="M457,230v1h43c-11.23-4.71-30.78-1-43-1Z"/>
    <path class="cls-82" d="M572,230v1h7l-7-1Z"/>
    <path class="cls-153" d="M894,230v6h1l-1-6Z"/>
    <path class="cls-4" d="M956.33,230.67l.33.67-.33-.67Z"/>
    <path class="cls-76" d="M1003.33,230.67l.33.67-.33-.67Z"/>
    <path class="cls-38" d="M403,232v23h1l-1-23Z"/>
    <path class="cls-93" d="M404,232v1h5l-5-1Z"/>
    <path class="cls-32" d="M441,232v1h5l-5-1Z"/>
    <path class="cls-223" d="M446,232v23h1l-1-23Z"/>
    <path class="cls-220" d="M511,232v23h1l-1-23Z"/>
    <path class="cls-214" d="M512,232v1h4v6h1v-7h-5Z"/>
    <path class="cls-93" d="M549,232v1h5l-5-1ZM635,232v6h1l-1-6Z"/>
    <path class="cls-174" d="M636,232v6h37v3h-37v14h44v-5h-38v-4h37v-14h-43Z"/>
    <path class="cls-93" d="M679,232v14h1l-1-14Z"/>
    <path class="cls-195" d="M805,232v5h1l-1-5Z"/>
    <path class="cls-73" d="M404,233v21h42v-21h-5v7h-32v-7h-5ZM512,233v21h42v-21h-5v7c-8.68,0-32.12,4.52-33-7h-4Z"/>
    <path class="cls-200" d="M818,234v6h1l-1-6Z"/>
    <path class="cls-111" d="M698,235l1,1-1-1Z"/>
    <path class="cls-67" d="M851,235v1h43c-11.23-4.71-30.78-1-43-1Z"/>
    <path class="cls-156" d="M453,236v5h1v-4h49v4h1v-5h-51ZM565,236v18h1l-1-18Z"/>
    <path class="cls-73" d="M566,236v18h43v-4h-39v-14h-4Z"/>
    <path class="cls-67" d="M570,236v14h1l-1-14Z"/>
    <path class="cls-174" d="M454,237v4h22v14h4v-14h23v-4h-49Z"/>
    <path class="cls-153" d="M672,238c-7.56,5.73-27.59,2-37,2v1h29c2.6,0,9.54,1.09,8-3Z"/>
    <path class="cls-58" d="M811,238v5h1l-1-5Z"/>
    <path class="cls-115" d="M409,239v1h32l-32-1ZM517,239v1h32l-32-1Z"/>
    <path class="cls-72" d="M818,240v8h1l-1-8Z"/>
    <path class="cls-220" d="M475,241v14h1l-1-14Z"/>
    <path class="cls-102" d="M480,241v14h1l-1-14Z"/>
    <path class="cls-93" d="M635,241v14h1l-1-14Z"/>
    <path class="cls-18" d="M702,242l1,1-1-1Z"/>
    <path class="cls-45" d="M409,243v1h32l-32-1ZM517,243v1h32l-32-1Z"/>
    <path class="cls-20" d="M811,243v5h1l-1-5Z"/>
    <path class="cls-52" d="M409,244v6h32v-6h-32ZM517,244v6h32v-6h-32Z"/>
    <path class="cls-104" d="M799,245v3h1l-1-3Z"/>
    <path class="cls-57" d="M642,249h1c7.56-5.73,27.59-2,37-2-6.52-3.76-21.33-1-29-1-3.65,0-8.1-1.22-9,3Z"/>
    <path class="cls-154" d="M685.33,248.67l.33.67-.33-.67Z"/>
    <path class="cls-142" d="M743,248l1,1-1-1Z"/>
    <path class="cls-2" d="M753,248v1h5l-5-1Z"/>
    <path class="cls-199" d="M767,248l1,1-1-1Z"/>
    <path class="cls-73" d="M847,248v6h50v-6h-50Z"/>
    <path class="cls-90" d="M897,248v6h1l-1-6Z"/>
    <path class="cls-214" d="M910,248v1h24l-24-1Z"/>
    <path class="cls-223" d="M954,248v6h1l-1-6Z"/>
    <path class="cls-73" d="M955,248v6h50v-6h-50Z"/>
    <path class="cls-223" d="M571,249v1h38c-10.04-4.21-27.09-1-38-1Z"/>
    <path class="cls-67" d="M642,249v1h38c-10.04-4.21-27.09-1-38-1Z"/>
    <path class="cls-57" d="M680,249v6h1l-1-6Z"/>
    <path class="cls-45" d="M409,250v1h32l-32-1ZM517,250v1h32l-32-1Z"/>
    <path class="cls-111" d="M689,253l1,1-1-1Z"/>
    <path class="cls-25" d="M404,254v1h42c-11-4.61-30.04-1-42-1ZM512,254v1h42c-11-4.61-30.04-1-42-1Z"/>
    <path class="cls-69" d="M566,254v1h43c-11.23-4.71-30.78-1-43-1Z"/>
    <path class="cls-220" d="M717,254v1h7l-7-1Z"/>
    <path class="cls-34" d="M751,254v1h7l-7-1Z"/>
    <path class="cls-56" d="M758.67,254.33l.67.33-.67-.33Z"/>
    <path class="cls-38" d="M793,254v1h32l-32-1ZM903,254v1h31l-31-1Z"/>
    <path class="cls-182" d="M476,255v1h5l-5-1Z"/>
  </g>
</svg>