<?xml version="1.0" encoding="UTF-8"?>
<svg id="_레이어_2" data-name="레이어_2" xmlns="http://www.w3.org/2000/svg" viewBox="0 0 28.93 28.94">
  <defs>
    <style>
      .cls-1 {
        fill: #eceff1;
      }
    </style>
  </defs>
  <g id="_레이어_1-2" data-name="레이어_1">
    <path class="cls-1" d="M26.78,17.62l-4.69-1.16c-1.11-.27-2.27.13-2.96,1.04l-1.67,2.21c-3.49-1.96-6.4-4.89-8.31-8.36l2.16-1.61c.92-.68,1.33-1.84,1.05-2.95l-1.17-4.66c-.32-1.26-1.45-2.14-2.76-2.14L2.82.04c-.79,0-1.52.33-2.05.91C.23,1.53-.05,2.32,0,3.12c.99,13.65,12.09,24.74,25.82,25.81.08,0,.15.01.23.01.73,0,1.45-.27,1.98-.77.58-.54.9-1.27.9-2.06v-5.75c0-1.3-.88-2.43-2.15-2.74Z"/>
  </g>
</svg>