<?xml version="1.0" encoding="UTF-8"?>
<svg id="_레이어_2" data-name="레이어_2" xmlns="http://www.w3.org/2000/svg" xmlns:xlink="http://www.w3.org/1999/xlink" viewBox="0 0 75.18 69.08">
  <defs>
    <style>
      .cls-1 {
        fill: #f9e000;
      }

      .cls-2 {
        fill: none;
      }

      .cls-3 {
        clip-path: url(#clippath-1);
      }

      .cls-4 {
        clip-path: url(#clippath-3);
      }

      .cls-5 {
        fill: #371c1d;
      }

      .cls-6 {
        clip-path: url(#clippath-2);
      }

      .cls-7 {
        clip-path: url(#clippath);
      }
    </style>
    <clipPath id="clippath">
      <path class="cls-2" d="M11.36,24.25h3.87s.02,10.63,0,13.1c0,1.81,4.03,1.83,4.02.03l.02-12.99s1.3,0,3.85.01c2.41,0,2.41-3.78,0-3.79-2.71,0-11.77-.07-11.77-.07-2.27,0-2.26,3.71,0,3.71h.01Z"/>
    </clipPath>
    <clipPath id="clippath-1">
      <path class="cls-2" d="M29.88,24.94l2.15,6.75h-4.49l2.33-6.75h0ZM27.47,21.78c-.95,2.1-4.39,12-5.53,14.63-.83,1.9,2.73,3.45,3.56,1.55l.77-2.71h7.08s-.24.11.7,2.59c.76,2.01,4.44.62,3.68-1.39-1.09-2.87-4.85-13.2-5.53-14.67-.32-.68-1.45-1.16-2.55-1.16-.91,0-1.8.33-2.17,1.16h-.01Z"/>
    </clipPath>
    <clipPath id="clippath-2">
      <path class="cls-2" d="M39.08,22.4c0,3.37.02,14.21.02,14.21,0,0-.31,2.16,1.54,2.16s5.95-.02,7.77-.02,1.81-3.87,0-3.87-5.14-.02-5.14-.02c0,0,.02-10.03.01-12.47,0-1.18-1.05-1.77-2.09-1.77s-2.1.59-2.1,1.78h-.01Z"/>
    </clipPath>
    <clipPath id="clippath-3">
      <path class="cls-2" d="M50.71,21.86c.04,1.48-.05,14.82-.05,15.81,0,1.56,3.97,1.56,3.97,0v-5.25l1.17-.94,5.1,6.96c1.03,1.36,4.28-1.1,3.25-2.46l-5.42-7.13s3.68-3.98,5.13-5.42c.85-.84-1.77-3.48-2.62-2.64-.82.81-6.58,6.58-6.58,6.58,0,0,.05-3.62,0-5.62-.02-.76-.95-1.13-1.91-1.13-1.02,0-2.06.42-2.04,1.23h0Z"/>
    </clipPath>
  </defs>
  <g id="_레이어_2-2" data-name="_레이어_2">
    <g>
      <path class="cls-5" d="M37.59,0C16.83,0,0,13.3,0,29.72c0,10.68,7.13,20.05,17.83,25.29-.79,2.93-2.85,10.63-3.26,12.28-.51,2.04.75,2.02,1.57,1.47.65-.43,10.3-7,14.47-9.83,2.26.34,4.59.51,6.98.51,20.76,0,37.59-13.3,37.59-29.72S58.35,0,37.59,0"/>
      <g>
        <g>
          <path class="cls-1" d="M11.36,24.25h3.87s.02,10.63,0,13.1c0,1.81,4.03,1.83,4.02.03l.02-12.99s1.3,0,3.85,0c2.41,0,2.41-3.78,0-3.79-2.71,0-11.77-.07-11.77-.07-2.27,0-2.26,3.71,0,3.71"/>
          <g class="cls-7">
            <rect class="cls-1" x="9.09" y="20.54" width="16.44" height="18.65"/>
          </g>
        </g>
        <g>
          <path class="cls-1" d="M29.88,24.94l2.15,6.75h-4.49l2.33-6.75h0ZM27.47,21.78c-.95,2.1-4.39,12-5.53,14.63-.83,1.9,2.73,3.45,3.56,1.55l.77-2.71h7.08s-.24.11.7,2.59c.76,2.01,4.44.62,3.68-1.39-1.09-2.87-4.85-13.2-5.53-14.67-.32-.68-1.45-1.16-2.55-1.16-.91,0-1.8.33-2.17,1.16"/>
          <g class="cls-3">
            <rect class="cls-1" x="21.11" y="20.62" width="17.38" height="19.23"/>
          </g>
        </g>
        <g>
          <path class="cls-1" d="M39.08,22.4c0,3.37.02,14.21.02,14.21,0,0-.31,2.16,1.54,2.16s5.95-.02,7.77-.02,1.81-3.87,0-3.87-5.14-.02-5.14-.02c0,0,.02-10.03.01-12.47,0-1.18-1.05-1.77-2.09-1.77s-2.1.59-2.1,1.78"/>
          <g class="cls-6">
            <rect class="cls-1" x="38.79" y="20.62" width="11.44" height="18.15"/>
          </g>
        </g>
        <g>
          <path class="cls-1" d="M50.71,21.86c.04,1.48-.05,14.82-.05,15.81,0,1.56,3.97,1.56,3.97,0v-5.25l1.17-.94,5.1,6.96c1.03,1.36,4.28-1.1,3.25-2.46l-5.42-7.13s3.68-3.98,5.13-5.42c.85-.84-1.77-3.48-2.62-2.64-.82.81-6.58,6.58-6.58,6.58,0,0,.05-3.62,0-5.62-.02-.76-.95-1.13-1.91-1.13-1.02,0-2.06.42-2.04,1.23"/>
          <g class="cls-4">
            <rect class="cls-1" x="50.66" y="19.96" width="14.52" height="19.85"/>
          </g>
        </g>
      </g>
    </g>
  </g>
</svg>